<svg width="71" height="25" viewBox="0 0 71 25" fill="none" xmlns="http://www.w3.org/2000/svg">
<path d="M0.500244 6.14306H3.60784V19.2516H0.500244V24.4657H17.0579V19.2516H13.9503V6.14306H17.0579V0.539062H0.500244V6.14306Z" fill="#fff"/>
<path d="M42.3738 19.558V12.6869C42.3738 8.30118 39.1691 6.69307 35.236 6.69307C32.4198 6.69307 30.2833 7.47276 28.4382 9.61691C28.2925 9.7631 28.1468 9.95802 27.9526 10.1529V6.54688H17.7073V11.7611H20.038V19.6067H17.7073V24.8209H30.6718V19.558H28.1954V15.026C28.1954 13.1255 29.6521 11.7123 31.5458 11.7123C33.051 11.7123 34.2164 12.4433 34.2164 14.1001V19.558H31.8371V24.7722H44.5103V19.6554C44.5103 19.6067 44.4617 19.6067 44.4617 19.558H42.3738Z" fill="#fff"/>
<path d="M65.42 17.7437H58.6707H58.4279C58.4279 19.6442 57.0198 20.5701 55.466 20.5701C52.4555 20.5701 52.2128 18.0361 52.2128 15.6483V15.5996C52.2128 13.2118 52.4555 10.6778 55.466 10.6778C57.8452 10.6778 58.2337 12.7245 58.3308 14.6737L65.3228 13.894C64.5945 6.73063 57.5539 6.29205 55.8059 6.29205C55.5631 6.29205 55.4174 6.29205 55.4174 6.29205C49.6393 6.29205 43.9583 9.16715 43.9583 15.5996C43.9583 16.964 44.201 18.1823 44.6866 19.2544H44.7351V19.3518C46.4832 23.2015 50.9503 24.9071 55.4174 24.9071C59.1077 24.9071 64.2546 24.03 65.3714 18.3285L65.42 17.7437Z" fill="#fff"/>
<path d="M67.799 24.5659C69.4348 24.5659 70.7609 23.2345 70.7609 21.5921C70.7609 19.9496 69.4348 18.6182 67.799 18.6182C66.1631 18.6182 64.837 19.9496 64.837 21.5921C64.837 23.2345 66.1631 24.5659 67.799 24.5659Z" fill="#fff"/>
</svg>
