<svg width="300" height="60" viewBox="0 0 300 60" fill="none" xmlns="http://www.w3.org/2000/svg">
<path d="M26.9407 17.9224C22.2349 17.5687 17.5291 18.8657 13.6468 21.6955V0L0 0.471642V6.83881H4.94109V58.3657H13.5292V54.9463C22.7055 61.4314 35.4111 59.309 41.9993 50.112C48.5874 40.9149 46.3521 28.1806 37.1758 21.5776C34.117 19.4552 30.5877 18.2761 26.9407 17.9224ZM33.1759 47.1642L33.8818 53.4135L28.2348 49.7582C21.882 51.409 15.5291 47.5179 13.8821 41.2687C12.2351 35.0194 16.1174 28.5343 22.3525 26.8836C28.7054 25.2328 35.0582 29.1239 36.7052 35.3732C37.8817 39.6179 36.4699 44.2164 33.1759 47.1642Z" fill="#F6F6F9"/>
<path d="M74.3517 58.2513H82.9398V18.2795L69.4106 18.7512V25.1184H74.3517V42.5692C74.3517 46.3423 71.6459 49.7617 67.8812 50.3513C63.7636 50.9408 59.999 47.9931 59.4108 43.8662C59.4108 43.5125 59.2931 43.2766 59.2931 42.9229V18.2795L45.7639 18.7512V25.1184H50.705V42.9229C50.705 51.7662 57.8814 59.0767 66.8224 59.0767C69.4106 59.0767 71.9988 58.4871 74.3517 57.1901" fill="#F6F6F9"/>
<path d="M159.291 18.7522C156.703 18.7522 154.115 19.3418 151.762 20.6388V18.7522L138.233 19.2238V25.591H143.174V58.606H151.762V35.1418C151.762 31.3686 154.468 27.9492 158.233 27.4776C162.35 26.888 166.115 29.8358 166.703 33.9627C166.703 34.3164 166.821 34.5522 166.821 34.906V58.606H175.409V34.7881C175.291 25.9448 168.115 18.7522 159.291 18.7522Z" fill="#F6F6F9"/>
<path d="M119.054 18.7487V25.1159H124.113V58.3668H132.701V18.2771L119.054 18.7487Z" fill="#F6F6F9"/>
<path d="M127.524 12.1502C130.448 12.1502 132.818 9.77352 132.818 6.8418C132.818 3.91008 130.448 1.53345 127.524 1.53345C124.6 1.53345 122.23 3.91008 122.23 6.8418C122.23 9.77352 124.6 12.1502 127.524 12.1502Z" fill="#F6F6F9"/>
<path d="M103.292 34.0759C95.7632 32.5431 95.7632 31.1282 95.7632 30.067V29.949C95.7632 28.1804 97.9984 26.2938 101.528 26.2938C104.469 26.2938 107.41 27.355 109.763 29.1237L114.939 22.4027C111.175 19.455 106.469 17.9221 101.645 17.9221C93.6456 17.9221 87.4104 23.2281 87.4104 29.949C87.4104 38.2028 94.4691 40.6789 101.41 42.0939C109.057 43.6267 109.057 45.0416 109.057 46.2208V46.3387C109.057 49.0506 105.998 50.2297 102.822 50.2297C99.1749 50.2297 95.7632 48.8148 93.2926 46.2208L87.4104 52.3521C91.528 56.3611 97.0573 58.6014 102.822 58.6014C111.41 58.6014 117.645 53.4133 117.645 46.2208V46.1028C117.41 38.0849 110.234 35.4909 103.292 34.0759Z" fill="#F6F6F9"/>
<path d="M239.051 34.0754C231.522 32.5426 231.522 31.1277 231.522 30.0665V29.9486C231.522 28.1799 233.757 26.2933 237.287 26.2933C240.228 26.2933 243.169 27.3545 245.522 29.1232L250.698 22.4022C246.934 19.4545 242.228 17.9216 237.404 17.9216C229.405 17.9216 223.169 23.2276 223.169 29.9486C223.169 38.2023 230.228 40.6785 237.169 42.0934C244.816 43.6262 244.816 45.0412 244.816 46.2203V46.3382C244.816 49.0501 241.757 50.2292 238.581 50.2292C234.934 50.2292 231.522 48.8143 228.934 46.2203L223.052 52.3516C227.169 56.3606 232.699 58.6009 238.463 58.6009C247.051 58.6009 253.287 53.4128 253.287 46.2203V46.1024C253.169 38.0844 246.11 35.4904 239.051 34.0754Z" fill="#F6F6F9"/>
<path d="M271.996 34.0759C264.466 32.5431 264.466 31.1282 264.466 30.067V29.949C264.466 28.1804 266.702 26.2938 270.231 26.2938C273.172 26.2938 276.113 27.355 278.466 29.1237L283.642 22.4027C279.878 19.455 275.172 17.9221 270.349 17.9221C262.349 17.9221 256.114 23.2281 256.114 29.949C256.114 38.2028 263.172 40.6789 270.113 42.0939C277.76 43.6267 277.76 45.0416 277.76 46.2208V46.3387C277.76 49.0506 274.701 50.2297 271.525 50.2297C267.878 50.2297 264.466 48.8148 261.996 46.2208L256.114 52.3521C260.231 56.3611 265.76 58.6014 271.525 58.6014C280.113 58.6014 286.348 53.4133 286.348 46.2208V46.1028C286.231 38.0849 279.054 35.4909 271.996 34.0759Z" fill="#F6F6F9"/>
<path d="M290.698 27.4763C290.698 24.999 292.698 22.9937 295.168 22.9937C297.639 22.9937 299.639 24.999 299.639 27.4763C299.639 28.7739 299.168 30.0715 298.11 31.0152L296.816 29.7176C297.521 29.1278 297.874 28.302 297.874 27.4763C297.874 26.0607 296.58 24.999 295.051 24.999C293.521 24.999 292.227 26.0607 292.227 27.5942C292.227 28.42 292.698 29.2457 293.286 29.8355L292.11 31.0152C291.286 30.1894 290.698 28.8918 290.698 27.4763Z" fill="#F6F6F9"/>
<path d="M290.701 37.4976C290.583 35.0204 292.583 32.897 295.054 32.897H295.171C297.76 32.7791 299.877 34.7845 299.995 37.3796C300.113 39.9748 298.113 42.0982 295.524 42.2161C292.936 42.3341 290.819 40.3287 290.701 37.7335C290.701 37.6156 290.701 37.6156 290.701 37.4976ZM297.995 37.4976C297.995 35.8461 296.701 34.9024 295.171 34.9024C293.642 34.7845 292.466 35.9641 292.348 37.3796V37.4976C292.348 39.1491 293.642 40.0928 295.171 40.0928C296.701 40.2108 297.877 39.0311 297.995 37.4976C297.995 37.6156 297.995 37.6156 297.995 37.4976Z" fill="#F6F6F9"/>
<path d="M299.76 54.9513C299.76 56.8387 298.583 58.0183 296.466 58.0183H290.937V56.013H295.878C297.289 56.013 297.995 55.4231 297.995 54.2435C297.995 53.0639 297.289 52.3561 295.878 52.3561H290.937V50.3507H295.878C297.172 50.3507 297.995 49.6429 297.995 48.5813C297.995 47.5196 297.172 46.6939 295.878 46.6939H290.937V44.6885H299.642V46.6939H298.348C299.289 47.2837 299.878 48.2274 299.878 49.407C299.878 50.4687 299.289 51.5303 298.348 52.0022C299.172 52.592 299.76 53.7717 299.76 54.9513Z" fill="#F6F6F9"/>
<path d="M291.992 20.7544C292.707 20.7544 293.286 20.1734 293.286 19.4568C293.286 18.7401 292.707 18.1592 291.992 18.1592C291.277 18.1592 290.698 18.7401 290.698 19.4568C290.698 20.1734 291.277 20.7544 291.992 20.7544Z" fill="#F6F6F9"/>
<path d="M219.997 41.8615C221.879 30.7779 214.467 20.1659 203.409 18.2793C192.35 16.3927 181.762 23.8211 179.88 34.9048C179.644 36.0839 179.527 37.1451 179.527 38.3242C179.527 38.4421 179.527 38.56 179.527 38.6779C179.527 38.9138 179.527 39.0317 179.527 39.2675C179.527 39.5033 179.527 39.7391 179.527 39.975C179.527 40.0929 179.527 40.0929 179.527 40.2108C179.527 40.4466 179.527 40.6824 179.644 40.9182C179.644 41.0362 179.644 41.0362 179.644 41.1541C179.644 41.3899 179.644 41.5078 179.762 41.7436V41.8615C181.527 51.4123 190.115 58.7228 200.585 58.7228C207.879 58.7228 214.702 55.0676 218.702 48.9362L211.291 44.5735C208.938 48.1108 204.938 50.2332 200.703 50.1153C195.056 50.1153 190.35 46.6959 188.703 41.8615H219.997ZM199.879 26.5331C205.056 26.5331 209.526 29.8346 211.055 34.7869H188.585C190.232 29.8346 194.703 26.5331 199.879 26.5331Z" fill="#F6F6F9"/>
</svg>
