<svg width="123" height="25" viewBox="0 0 123 25" fill="none" xmlns="http://www.w3.org/2000/svg">
<path d="M0.566113 16.4991L2.11233 16.2526V1.97807L0.386841 1.75398L0.476477 0.207764H11.2776L11.0087 4.53269L8.85743 4.46547L8.72297 1.75398H5.38404V8.18535H6.84062L7.17676 6.70636L8.67816 6.75118V11.1882H7.17676L6.81821 9.66435H5.36163V16.4767H8.72297L9.0367 13.5187L11.3 13.5859L11.4793 18.0901H0.498886L0.566113 16.4991Z" fill="white"/>
<path d="M12.4877 18.1126L12.5549 16.7904L13.765 16.5439V7.53554L12.3532 7.40108V6.05655L15.8938 5.54114L16.1627 6.30304V6.81845C17.0143 5.92209 18.0451 5.38428 19.3672 5.38428C21.2944 5.38428 22.7286 6.54954 22.7286 8.85767V16.5215L24.0059 16.768L23.9386 18.0902H19.7258V9.52993C19.7258 8.29744 19.2776 7.60276 18.1571 7.60276C17.7762 7.60276 17.5073 7.66999 17.216 7.78204C17.0367 7.9389 16.8574 8.16299 16.7005 8.36467V16.5663L17.9779 16.8128L17.8882 18.135H12.4877V18.1126Z" fill="white"/>
<path d="M80.1851 18.1126L80.23 16.7904L81.4401 16.5439V7.53554L80.0283 7.40108V6.05655L83.5689 5.54114L83.8378 6.30304V6.81845C84.6893 5.92209 85.7202 5.38428 87.0423 5.38428C88.9695 5.38428 90.4036 6.54954 90.4036 8.85767V16.5215L91.6809 16.768L91.6137 18.0902H87.4232V9.52993C87.4232 8.29744 86.9751 7.60276 85.8546 7.60276C85.4737 7.60276 85.2048 7.66999 84.9134 7.78204C84.7342 7.9389 84.5549 8.16299 84.398 8.36467V16.5663L85.6753 16.8128L85.5857 18.135H80.1851V18.1126Z" fill="white"/>
<path d="M30.6837 17.8661C30.1907 18.0678 29.3167 18.2919 28.1739 18.2919C26.6725 18.2919 25.2831 17.6196 25.2831 15.4235V7.53557L23.8489 7.31148L23.9162 5.74285L25.5296 5.67563L26.2243 3.27787L28.2859 3.18823V5.76526H30.5044L30.3475 7.33389L28.3083 7.55798V15.4459C28.3083 16.0958 28.6668 16.5216 29.3391 16.5216H30.5492L30.6837 17.8661Z" fill="white"/>
<path d="M114.56 18.1126L114.605 16.8129L115.748 16.544V7.53561L114.404 7.40115V6.05661L118.079 5.54121L118.325 6.41516V6.70647C119.289 5.98939 120.589 5.5188 122.157 5.5188L122.695 5.98939L122.314 9.39555L120.297 9.32832L120.096 7.5132C119.625 7.58042 119.177 7.71488 118.796 7.98378V16.5664L120.073 16.8353L119.983 18.135H114.56V18.1126Z" fill="white"/>
<path d="M61.7874 18.1126L61.8546 16.8129L62.9975 16.544V7.53561L61.6529 7.40115V6.05661L65.328 5.54121L65.5745 6.41516V6.70647C66.5381 5.98939 67.8378 5.5188 69.4064 5.5188L69.9442 5.98939L69.5185 9.39555L67.5017 9.32832L67.3 7.5132C66.8294 7.58042 66.3812 7.71488 66.0003 7.98378V16.5664L67.2776 16.8353L67.1879 18.135H61.7874V18.1126Z" fill="white"/>
<path d="M31.58 18.1126L31.6472 16.8129L32.7901 16.544V7.53561L31.4456 7.40115V6.05661L35.1206 5.54121L35.3671 6.41516V6.70647C36.3307 5.98939 37.6304 5.5188 39.1766 5.5188L39.7145 5.98939L39.3335 9.39555L37.3167 9.32832L37.115 7.5132C36.6444 7.58042 36.1963 7.71488 35.8153 7.98378V16.5664L37.0926 16.8353L37.003 18.135H31.58V18.1126Z" fill="white"/>
<path d="M43.1879 12.6223C43.1879 14.7736 44.1291 16.4318 45.989 16.4318C46.9526 16.4318 47.7145 16.2302 48.6109 15.8044L49.1263 16.9921C48.2075 17.7316 46.863 18.2918 45.1823 18.2918C41.9106 18.2918 40.0283 15.4683 40.0283 11.838C40.0283 8.74557 41.3952 5.36182 45.1375 5.36182C48.4092 5.36182 49.6417 8.38703 49.6417 11.7484L49.328 12.5551L43.1879 12.6223ZM43.1431 11.1881L46.9078 11.0089C46.8406 9.50747 46.5269 7.13212 45.0479 7.13212C44.6893 7.13212 44.4428 7.19935 43.9946 7.42344C43.3896 8.45425 43.1431 10.3142 43.1431 11.1881Z" fill="white"/>
<path d="M95.2664 12.6223C95.2664 14.7736 96.2075 16.4318 98.0675 16.4318C99.0311 16.4318 99.793 16.2302 100.689 15.8044L101.205 16.9921C100.286 17.7316 98.9414 18.2918 97.2608 18.2918C93.9891 18.2918 92.1067 15.4683 92.1067 11.838C92.1067 8.74557 93.4737 5.36182 97.216 5.36182C100.488 5.36182 101.72 8.38703 101.72 11.7484L101.406 12.5551L95.2664 12.6223ZM95.2216 11.1881L98.9863 11.0089C98.919 9.50747 98.6053 7.13212 97.1263 7.13212C96.7678 7.13212 96.5213 7.19935 96.0731 7.42344C95.4681 8.45425 95.2216 10.3142 95.2216 11.1881Z" fill="white"/>
<path d="M73.3952 12.6223C73.3952 14.7736 74.3364 16.4318 76.1963 16.4318C77.1599 16.4318 77.9218 16.2302 78.8182 15.8044L79.3336 16.9921C78.4148 17.7316 77.0703 18.2918 75.3896 18.2918C72.1179 18.2918 70.2356 15.4683 70.2356 11.838C70.2356 8.74557 71.6025 5.36182 75.3448 5.36182C78.6165 5.36182 79.849 8.38703 79.849 11.7484L79.5353 12.5551L73.3952 12.6223ZM73.3504 11.1881L77.1151 11.0089C77.0479 9.50747 76.7342 7.13212 75.2552 7.13212C74.8966 7.13212 74.6501 7.19935 74.2019 7.42344C73.5969 8.45425 73.328 10.3142 73.3504 11.1881Z" fill="white"/>
<path d="M110.191 18.1127L109.877 17.037C109.048 17.8214 108.241 18.2919 106.986 18.2919C105.059 18.2919 103.334 17.3284 103.334 14.6617V7.22192L101.922 7.08746V5.89979L106 5.4292L106.314 6.50483V14.3031C106.314 15.6701 106.874 16.3872 107.972 16.3872C108.286 16.3872 108.689 16.3424 109.048 16.2079C109.25 16.0062 109.451 15.7597 109.608 15.5132V7.22192L108.152 7.08746V5.89979L112.275 5.4292L112.589 6.50483V16.544L113.866 16.7905L113.709 18.1127H110.191Z" fill="white"/>
<path d="M55.7593 16.4991C55.1095 16.4991 54.5941 16.3871 54.1907 16.163V8.25262C54.37 7.98372 54.5717 7.73722 54.7733 7.51313C55.1543 7.37867 55.4904 7.33386 55.8938 7.33386C57.5745 7.33386 57.8658 9.03694 57.8658 12.0846C57.8658 15.0201 57.4176 15.8269 57.3056 16.163C56.835 16.3871 56.342 16.4991 55.7593 16.4991ZM60.7789 11.5467C60.7789 7.75963 59.6585 5.38428 56.8574 5.38428C54.9974 5.38428 54.1235 6.45991 53.7649 6.90809V6.48232L53.4512 5.40669L49.7986 5.92209V7.22181L51.2103 7.40108V22.684L50.0002 22.9305L49.933 24.2078H55.3336L55.4232 22.9305L54.1459 22.684V17.8437C54.6613 18.135 55.3784 18.3142 56.1627 18.3142C60.7341 18.3142 60.7789 13.6756 60.7789 11.5467Z" fill="white"/>
</svg>
