<svg width="80" height="21" viewBox="0 0 80 21" fill="none" xmlns="http://www.w3.org/2000/svg">
<path d="M48.5412 6.58891C47.3915 6.60164 46.2619 6.89589 45.2485 7.44659C45.2485 4.45629 45.2942 1.86005 45.3628 0.863281L39.3034 2.0455V2.60183L39.8979 2.67137C40.744 2.78728 41.0641 3.29725 41.1784 4.43311C41.3613 6.63527 41.3385 18.3879 41.1784 20.2655C42.8724 20.6724 44.6053 20.8901 46.3461 20.9146C51.1479 20.9146 54.0518 17.9011 54.0518 13.1259C54.029 9.32423 51.6738 6.58891 48.5412 6.58891ZM46.4375 19.9642C46.0927 19.9601 45.7487 19.9291 45.4086 19.8714C45.3171 18.5501 45.2485 13.1027 45.2714 8.35064C45.726 8.18634 46.2065 8.10777 46.6891 8.11883C48.6784 8.11883 49.7988 10.4601 49.7988 13.3808C49.7759 17.1361 48.404 19.9642 46.4375 19.9642ZM16.5291 6.72799L15.5916 6.98298C14.7456 4.2013 13.4423 2.62501 10.9956 2.62501H7.84015C7.70295 4.40993 7.63436 7.37705 7.65722 10.4601L9.78374 10.3905C11.2014 10.3442 11.7731 9.27787 12.116 7.72476H12.9163V14.2617H12.116C11.7731 12.6854 11.1785 11.6191 9.76087 11.5728L7.65722 11.5032C7.68009 13.8445 7.74869 15.838 7.84015 17.0202C7.97734 18.7588 8.45752 19.5237 9.66941 19.7092L10.7441 19.8251V20.6132H0.500244V19.8251L1.34628 19.7092C2.55816 19.5237 3.03834 18.7588 3.17554 17.0202C3.40419 14.1458 3.44993 8.18838 3.17554 4.85036C3.03834 3.13499 2.55816 2.37003 1.34628 2.18458L0.500244 2.06868V1.30371H16.4377L16.5291 6.72799ZM21.6282 6.42664C26.1556 6.42664 28.3965 9.53286 28.3965 13.659C28.3965 17.7852 25.8584 20.9378 21.3309 20.9378C16.8035 20.9378 14.5398 17.8315 14.5398 13.7286C14.5398 9.62558 17.0779 6.42664 21.6282 6.42664ZM21.3995 7.30751C19.3874 7.30751 18.8386 10.0428 18.8386 13.6822C18.8386 17.3216 19.7303 20.0569 21.5825 20.0569C23.4346 20.0569 24.1434 17.3216 24.1434 13.6822C24.1434 10.0428 23.2288 7.33069 21.3767 7.33069L21.3995 7.30751ZM55.1494 13.8213C55.1494 10.0197 57.5045 6.44983 62.192 6.44983C65.9877 6.44983 67.7941 9.30105 67.817 13.0331H59.3338C59.2423 16.4175 60.9344 18.921 64.1814 18.921C65.599 18.921 66.3765 18.5733 67.2454 17.9011L67.6341 18.3879C66.6966 19.7092 64.7301 20.9609 62.1234 20.9609C58.0305 20.9377 55.1494 18.017 55.1494 13.8213ZM59.3795 12.0827L63.6326 11.99C63.6554 10.0892 63.3582 7.35387 61.8262 7.35387C60.2942 7.35387 59.4024 9.92693 59.3567 12.0596L59.3795 12.0827ZM78.7011 10.7151L78.0151 10.9005C77.2834 8.46654 76.163 7.44659 74.5167 7.44659C73.4191 7.44659 72.6417 8.2811 72.6417 9.4865C72.6417 10.6919 73.5334 11.3178 76.0944 12.3145C78.6554 13.3113 79.3871 14.3081 79.3871 16.2553C79.3871 19.1528 77.192 20.9378 73.5792 20.9378C71.9495 20.9311 70.3331 20.641 68.8002 20.0801L68.6859 16.0698L69.3719 15.8844C70.3551 18.6892 71.6585 19.7092 73.3734 19.7092C75.0883 19.7092 75.6371 18.666 75.6371 17.5534C75.6371 16.4407 75.0197 15.8148 72.7103 14.9803C70.4008 14.1458 69.006 13.2418 69.006 10.8078C69.006 8.37382 71.0639 6.42664 74.4709 6.42664C76.0487 6.42664 77.5578 6.70481 78.5639 7.16843L78.7011 10.7151ZM38.7318 10.5992C36.9025 9.34741 34.9132 9.90375 34.5245 10.576C34.392 13.0473 34.4073 15.5244 34.5702 17.9938C34.6617 19.1297 35.0047 19.6396 35.8507 19.7555L36.9482 19.8251V20.6132H28.5108V19.8251L29.1053 19.7555C29.9513 19.6396 30.2714 19.1297 30.3858 17.9938C30.563 15.3311 30.563 12.6592 30.3858 9.99647C30.2943 8.86062 29.9513 8.35064 29.1053 8.23474L28.5108 8.1652V7.60886L34.5702 6.42664L34.5016 9.62558C35.9193 6.33392 38.7089 5.89349 40.218 6.82072L38.7318 10.5992Z" fill="#fff"/>
</svg>
