<svg width="300" height="176" viewBox="0 0 300 176" fill="none" xmlns="http://www.w3.org/2000/svg">
<path d="M298.587 0C299.647 7.42257e-05 300 0.35166 300 1.40625V174.377C300 175.432 299.647 175.783 298.587 175.783H1.41309C0.353281 175.783 0 175.432 0 174.377V1.40625C0 0.351662 0.353281 7.55437e-05 1.41309 0H298.587ZM73.498 7.03125C72.4381 7.03129 71.7314 7.38286 71.7314 8.4375C69.9647 16.1719 68.5509 24.2578 66.7842 31.9922C62.8973 50.9768 58.6574 69.9617 54.7705 88.9463C49.8235 113.204 44.1698 137.111 39.5762 161.369C39.5761 162.072 38.8695 162.775 39.5762 163.127C40.2828 163.478 40.9896 162.775 41.6963 162.072C42.0495 161.721 42.0493 161.369 42.4023 161.018C51.5896 146.252 61.1311 131.837 70.3184 117.071C71.3782 115.665 71.7314 113.907 71.7314 112.149V101.954C71.7314 101.251 71.3783 100.548 72.085 99.8447H80.2119C80.5653 99.8447 80.5654 99.8447 80.5654 99.4932C80.9188 99.4931 81.2725 98.79 81.2725 98.4385C81.6257 98.0868 81.9787 97.3836 82.332 96.6807C82.6854 96.6807 82.6855 96.3291 82.6855 95.9775C83.0389 95.626 83.3926 95.2744 83.3926 94.9229C84.0992 94.2198 84.4523 93.5165 84.8057 92.8135C85.159 92.8135 85.1592 92.4619 85.1592 92.1104C85.5125 91.7588 85.8662 91.4071 85.8662 90.7041C86.2194 90.7038 86.5722 90.3524 86.5723 90.001C86.9256 89.2979 87.6327 88.9462 87.6328 88.2432C87.986 88.243 88.3388 87.8915 88.3389 87.54L88.6924 86.8369C89.3991 86.4853 89.3996 86.1338 89.7529 85.4307C90.1061 85.4303 90.4589 84.7275 90.459 84.376L90.8125 84.0244C91.1615 84.0244 91.166 83.6813 91.166 83.6729C91.5194 83.3213 91.8732 82.9697 92.2266 82.2666L92.5791 81.5635C93.2858 81.2119 93.2864 80.5088 93.6396 79.8057L94.3467 78.751C95.0531 78.3994 95.0531 77.6963 95.4062 77.3447L96.1133 75.9385C96.8197 75.587 96.8198 74.8839 97.1729 74.5322C97.5262 74.1807 97.8798 73.8289 97.8799 73.126C98.5865 72.7745 98.5869 72.4227 98.5869 71.7197C99.2935 71.0167 99.6467 70.3133 100 69.2588L100.707 68.2041C101.06 67.8527 101.413 67.5009 101.413 67.1494L102.474 65.3916C102.827 65.3916 102.827 65.3912 102.827 65.04C103.534 64.6885 103.887 63.9852 103.887 63.2822C104.24 62.9307 104.594 62.579 104.947 61.876C105.3 61.8758 105.653 61.5239 105.653 60.8213C106.713 59.7666 107.42 58.711 107.773 57.6562C108.48 56.9531 108.834 56.25 109.188 55.1953C109.541 54.8439 109.894 54.4921 109.894 54.1406L110.247 53.4375C110.6 53.4375 110.601 53.0859 110.601 52.7344L110.954 52.0312C111.661 51.3282 112.367 50.6249 112.721 49.5703L113.074 48.8672C113.427 48.5157 113.428 48.164 113.428 47.8125V32.6953C116.254 31.9923 118.5 32.3437 121.555 32.3438C122.261 32.3438 123.727 32.344 124 32C130.5 23.7835 135.269 15.3365 140.636 7.03125H118.021C115.901 7.03125 115.194 7.73435 114.487 9.49219C108.48 21.7968 102.474 34.4532 96.4668 46.7578C92.5799 54.8439 88.6926 62.9306 84.8057 71.3682C84.4523 71.3682 84.4521 71.7197 84.4521 72.0713C84.099 72.4228 84.0984 72.7746 83.7451 73.4775L83.3926 73.8291C83.0392 74.1807 82.6855 74.8838 82.6855 75.2354L82.332 75.9385C81.9787 76.29 81.625 76.6417 81.625 76.9932L81.2725 78.3994C80.9191 78.751 80.9189 79.1025 80.9189 79.4541C80.5656 79.8057 80.2119 80.1572 80.2119 80.8604L79.8584 81.5635C79.5052 81.9149 79.1518 82.2667 79.5049 82.6182C79.1519 82.6184 79.1523 82.9699 79.1523 83.3213C78.799 83.6729 78.4453 84.376 78.4453 84.7275L78.0918 85.0791C77.7385 85.4307 77.3848 86.1339 77.3848 86.8369C77.0315 87.1886 76.6787 87.8918 76.6787 88.5947L76.3252 89.2979C75.9718 89.2979 75.9717 89.6494 75.9717 90.001C75.6184 90.001 75.6182 90.3526 75.6182 90.7041C75.2649 91.0557 74.9121 91.7589 74.9121 92.4619L74.2051 93.5166L73.8516 93.8682L73.1445 95.2744V95.626L72.792 96.3291L72.4385 97.0322C72.4385 97.0322 72.0851 97.0322 72.4385 97.3838C72.0851 97.7353 72.085 98.0869 72.085 98.4385C71.7316 99.1416 71.3778 99.8447 71.0244 100.548C61.4838 120.236 51.943 140.275 42.4023 159.963C42.0493 160.315 42.0493 161.018 41.3428 161.018C40.6361 159.963 41.6964 158.908 42.0498 158.205C45.23 149.064 48.4096 139.923 51.5898 130.782C60.7771 104.063 70.3176 77.344 79.5049 50.625C84.4518 36.914 89.0462 23.2032 93.9932 9.14062C94.3465 7.38279 94.3459 7.03125 92.5791 7.03125H73.498ZM239.576 100.899C233.922 100.899 228.975 102.657 225.441 105.821C219.081 111.446 218.021 123.751 225.441 129.376C227.562 131.134 230.389 132.188 232.862 133.243C236.042 134.298 239.222 135.002 242.402 136.057C244.169 136.408 244.877 137.814 244.523 139.572C244.523 141.33 243.816 142.385 242.05 143.088C237.81 144.846 232.509 142.736 230.742 138.518C230.389 137.463 229.682 136.76 228.622 137.463C226.855 138.166 224.735 138.518 222.968 138.869C217.315 139.924 216.961 140.627 219.788 145.9C219.788 146.252 220.142 146.252 220.142 146.604C224.029 152.58 229.682 155.393 236.749 155.744C244.169 156.096 250.883 154.338 255.477 148.01C260.777 140.627 260.07 127.267 247.35 123.399C243.816 122.345 239.929 121.29 236.396 120.235C234.629 119.884 233.569 118.829 233.569 116.72C233.57 114.962 235.336 113.556 237.103 113.204C240.989 112.501 243.463 113.556 245.583 117.071C246.29 118.126 246.643 118.126 247.703 117.774C250.53 116.72 253.003 116.017 255.83 114.962C257.244 114.61 257.244 113.907 256.891 112.501C253.357 104.415 247.703 100.899 239.576 100.899ZM123.321 102.657C121.908 102.657 121.555 103.009 121.555 104.415C122.261 112.501 122.262 120.587 122.262 128.673V153.283C122.262 154.689 122.262 155.041 124.028 155.041H155.124C156.537 155.041 156.891 154.689 156.891 153.283V145.197C156.891 143.439 156.537 143.088 154.771 143.088H137.81C135.69 143.088 135.336 142.384 135.336 140.627V135.354C135.336 133.947 135.689 133.595 137.103 133.595H150.53C151.944 133.595 152.65 133.243 152.65 131.837V124.103C152.65 122.697 152.297 122.345 150.884 122.345H137.103C135.689 122.345 134.982 121.993 134.982 120.587V116.368C134.982 114.962 135.336 114.61 136.749 114.61H153.71C155.123 114.61 155.477 114.259 155.477 112.853V104.415C155.477 103.009 155.123 102.657 153.71 102.657H123.321ZM107.773 102.657C106.007 102.657 105.653 103.009 105.653 104.767V126.563C105.653 126.915 106.007 127.618 105.301 127.97C104.594 128.321 104.24 127.618 103.887 127.267C103.534 126.915 103.534 126.563 103.181 126.212C98.9404 118.829 94.3467 111.798 90.1064 104.415C89.3998 103.36 89.046 103.009 87.9863 103.009H75.9717C74.5584 103.009 74.5586 103.36 74.5586 104.415V153.283C74.5586 154.689 74.9118 155.041 75.9717 154.689C79.1519 154.689 82.3325 154.338 85.5127 154.338C87.2791 154.338 87.6328 153.986 87.6328 152.229V127.618C87.6325 126.915 86.9265 125.509 87.9863 125.157C89.0458 124.806 89.0464 126.212 89.7529 126.915C95.0533 135.704 100.354 144.494 105.301 153.283C106.007 154.337 106.714 154.689 107.773 154.689H116.255C118.021 154.689 118.375 154.338 118.375 152.58V104.767C118.375 103.009 117.668 102.657 116.255 102.657H107.773ZM186.219 101.954C185.159 101.954 184.805 102.306 184.452 103.36C183.392 109.337 181.979 115.665 180.919 121.642C180.566 125.509 179.858 129.024 179.505 132.188H178.799C178.799 131.837 178.445 131.837 178.445 131.485C176.679 122.345 174.559 113.204 172.792 104.063C172.439 102.657 172.084 102.306 170.671 102.306H160.777C159.364 102.306 159.364 102.306 159.718 103.712C163.605 120.236 167.491 136.76 171.378 152.932C171.731 153.986 172.085 154.689 173.498 154.689H182.686C183.746 154.689 184.452 154.338 184.452 153.283C185.866 145.549 187.632 137.814 189.046 130.079C189.399 128.673 189.4 126.915 190.106 125.509C190.813 125.86 190.812 126.212 190.812 126.915C192.579 135.704 194.346 144.494 196.113 153.283C196.467 154.338 196.82 154.689 197.88 154.689H206.714C207.774 154.689 208.127 154.338 208.48 153.283C212.367 136.76 216.255 120.236 220.142 103.36C220.495 101.954 220.141 101.954 219.081 101.954H211.661C210.248 101.954 209.541 102.306 209.188 103.712C207.774 110.743 206.36 117.774 204.594 124.806C204.24 126.915 203.534 129.376 202.827 132.188C201.767 130.079 201.766 128.673 201.413 127.267C199.646 119.532 198.234 111.446 196.467 103.712C196.113 102.657 195.76 101.954 194.347 101.954H186.219ZM181.979 35.5078C166.078 35.508 152.65 48.5165 152.65 64.3369C152.651 80.5088 165.724 93.5165 182.332 93.5166C198.94 93.165 211.661 80.1572 211.661 64.3369C211.661 48.1648 198.586 35.5078 181.979 35.5078ZM118.021 35.8594C116.255 35.8594 115.901 36.2111 115.901 37.9688C116.608 46.4064 116.255 55.1962 116.255 63.9854V91.0557C116.255 92.4619 116.608 92.8135 118.021 92.8135H131.096C132.862 92.8134 132.862 92.1102 132.862 90.7041V76.6416C132.862 74.5322 133.569 74.1807 135.336 74.1807H148.057C149.117 74.1806 149.823 73.8288 149.823 72.7744V60.1182C149.823 58.7119 149.47 58.7119 148.057 58.7119H138.869C137.103 58.712 134.276 59.7659 133.216 58.3604C132.156 57.3057 132.862 54.4922 132.862 52.7344C132.862 50.977 133.569 50.9766 134.982 50.9766H151.59C153.003 50.9766 153.356 50.625 153.356 49.2188C153.003 45.3517 152.65 41.4843 152.297 37.6172C152.297 36.2111 151.59 35.8594 150.177 35.8594H118.021ZM204.947 34.8047C210.248 43.5939 215.195 52.3837 220.495 60.8213C221.202 62.2272 221.202 62.9308 220.495 63.9854C216.962 69.962 213.427 76.29 209.894 82.2666C207.42 86.1337 205.653 89.2979 203.887 92.4619H220.848C221.908 92.4619 221.908 91.7588 222.262 91.0557C224.382 87.1884 226.502 83.6729 228.976 79.8057C230.036 77.6963 230.389 77.6963 231.449 79.8057L237.81 90.3525C238.516 91.7586 239.223 92.1103 240.989 92.1104H255.124C255.831 92.1105 256.537 92.4618 256.891 91.7588C257.244 91.0557 256.537 90.7041 256.184 90.001C250.883 81.2118 245.583 72.4229 240.282 63.6338C239.576 62.5793 239.576 61.8757 240.282 60.8213C243.462 55.5478 246.643 50.2735 249.823 45C251.59 41.836 253.71 38.3203 255.83 34.8047H238.516C237.456 34.8048 237.102 35.5079 236.749 36.2109C234.982 39.0233 233.216 42.1876 231.449 45C230.743 46.4063 230.036 47.1094 229.329 45C227.916 42.1875 225.795 39.375 224.382 36.5625C223.675 35.1563 222.615 34.8047 221.201 34.8047H204.947ZM181.801 48.2832C184.981 48.2834 187.101 50.7456 187.101 54.2627V77.8281C187.101 80.9935 184.981 83.4558 181.801 83.4561C178.621 83.4561 176.5 80.9936 176.5 77.8281V54.2627C176.5 50.7455 178.974 48.2832 181.801 48.2832Z" fill="#F6F6F9"/>
</svg>
