<svg width="200" height="206" viewBox="0 0 200 206" fill="none" xmlns="http://www.w3.org/2000/svg">
<path d="M200 95.9429C199.42 98.4978 199.006 101.135 197.847 103.525C194.246 110.943 188.161 114.94 180.089 115.022C157.901 115.228 135.672 115.105 113.442 115.105C112.945 115.105 112.49 115.105 111.993 115.064C111.538 115.022 111.165 114.693 111.041 114.281C110.876 113.745 111.331 113.539 111.662 113.292L150.284 86.465C155.5 82.8387 160.633 79.1299 165.932 75.6272C171.437 71.9597 177.439 70.2702 184.021 72.0009C189.196 73.3608 192.963 76.6987 196.026 80.9019C197.433 82.7975 198.799 84.7343 199.545 87.0007C199.586 87.1243 199.834 87.2068 200 87.3304V95.9429Z" fill="#F6F6F9"/>
<path d="M80.44 168.355C80.44 157.275 80.44 146.153 80.3986 135.032C80.3986 133.879 80.6883 133.59 81.8474 133.59C91.5339 133.632 101.262 133.632 110.948 133.632C120.552 133.632 128.79 142.364 128.293 151.879C128.003 157.275 126.265 161.97 121.877 165.43C120.842 166.254 121.463 166.666 122.208 167.119C126.72 169.879 129.908 173.668 131.398 178.776C134.295 188.703 129.494 198.835 120.304 202.131C118.565 202.748 116.744 203.078 114.881 203.119C103.87 203.119 92.8586 203.119 81.8474 203.119C80.7297 203.119 80.3986 202.872 80.3986 201.677C80.44 190.556 80.44 179.435 80.44 168.355ZM94.8456 182.277C94.8456 185.037 94.8456 187.796 94.8456 190.515C94.8456 191.133 94.8042 191.586 95.7149 191.586C99.9372 191.545 104.16 191.586 108.382 191.545C108.754 191.545 109.168 191.462 109.5 191.339C113.349 190.227 116.744 187.385 116.247 182.112C115.833 177.252 112.066 173.256 107.14 173.215C103.456 173.215 99.7716 173.256 96.0874 173.174C94.887 173.133 94.7628 173.586 94.7628 174.574C94.887 177.169 94.8456 179.723 94.8456 182.277ZM94.8456 153.773C94.8456 156.08 94.9284 158.428 94.8042 160.735C94.7628 161.888 94.9698 162.3 96.253 162.259C99.4405 162.135 102.669 162.217 105.857 162.217C106.395 162.217 106.933 162.176 107.43 162.053C111.197 161.188 112.687 158.387 113.349 154.968C114.384 149.737 110.948 145.535 105.567 145.453C102.38 145.412 99.1507 145.494 95.9632 145.412C94.9284 145.371 94.8042 145.783 94.8042 146.648C94.887 149.078 94.8456 151.426 94.8456 153.773Z" fill="#F6F6F9"/>
<path d="M57.4334 31.7986C57.4748 31.7162 57.4334 31.6338 57.3506 31.6338C57.392 31.3867 57.3092 31.1807 57.1022 31.0572L57.0195 30.7688L56.8539 30.3981C56.8953 30.3157 56.8539 30.2334 56.8125 30.1922C56.8539 29.945 56.7711 29.6979 56.5641 29.5743C56.6055 29.4919 56.5641 29.3684 56.4813 29.3272L55.405 25.9496L55.3222 25.4965L55.0325 20.8421V20.2654C55.4878 16.7643 56.3571 13.3455 58.0129 10.1739L60.3725 7.00228L60.6209 6.71395L60.9106 6.38443L61.2004 6.0961L61.5316 5.80777L61.7799 5.56063L62.8976 4.61327L63.1874 4.36613C67.2855 1.77116 71.632 0 76.5995 0L77.4688 0.0411899C80.739 0.494278 83.9679 1.11213 87.0725 2.34782L87.3623 2.51258L87.6521 2.63615L89.3493 3.58352L89.7218 3.83066L90.0116 4.03661C90.053 4.11899 90.1358 4.16018 90.2186 4.16018L90.5911 4.40732L90.8809 4.61327H90.9223L91.2121 4.8604L91.7088 5.2723L94.9791 9.02058L95.2274 9.39129C95.2274 9.47367 95.2688 9.55605 95.3102 9.59724C95.3516 9.92676 95.5172 10.2563 95.807 10.4622L96.2209 11.3272L96.4279 11.6567C96.5935 12.3982 96.8833 13.1396 97.2558 13.7986V13.881L97.3386 13.9222C98.4149 18.1647 98.5805 22.6132 97.794 26.897C97.3386 29.5743 97.0902 32.334 96.7591 35.0526L96.6763 35.7528C96.2209 37.318 96.0967 38.9244 95.9312 40.5308L95.8484 41.3958C95.5172 42.6315 95.3516 43.9084 95.3102 45.1441L95.2274 45.7208C94.4823 49.675 94.027 53.6292 93.5716 57.5834L93.5302 58.1601C93.1991 59.3958 92.9921 60.6315 92.9921 61.9084L92.9507 62.485C92.6195 63.5972 92.4539 64.7917 92.4539 65.945L92.4125 66.5216C91.7088 69.4049 91.5018 72.4118 91.0879 75.3775C90.4256 79.9495 89.846 84.5216 89.2665 89.1349L89.1837 89.7115C88.7697 91.6063 88.48 93.5422 88.3558 95.5193L88.3144 96.096L87.9832 99.5559L87.4037 99.9266L87.1139 99.8854L86.7414 99.6383C85.7893 98.2378 85.1269 96.7138 84.4646 95.1486C82.3535 90.2058 80.4493 85.2218 78.1311 80.3614C78.1725 80.2791 78.1311 80.1967 78.0483 80.1967C77.1376 77.6429 76.0613 75.1303 74.8609 72.6589L74.7781 72.3706L74.6125 72.0411C74.6125 71.9587 74.6125 71.8763 74.5297 71.7939L74.3641 71.4232C74.4055 71.3409 74.3641 71.2585 74.2813 71.2173C74.3227 70.9702 74.2399 70.7642 74.033 70.6406C73.9088 69.8992 73.619 69.199 73.1637 68.6223C73.1223 68.0869 72.9153 67.5926 72.5841 67.1807L72.253 66.3157L72.0046 65.7802L71.839 65.4095C71.7562 64.874 71.5493 64.3386 71.2181 63.9267C71.2595 63.8855 71.2181 63.8031 71.1767 63.7619H71.1353C71.1767 63.5148 71.0939 63.2676 70.8869 63.1441C70.9283 63.0617 70.8869 62.9793 70.8041 62.8969C70.7627 62.4438 70.5558 62.0731 70.266 61.7436C69.9762 60.5903 69.4795 59.4782 68.8585 58.4072C68.8999 58.366 68.8585 58.2837 68.8172 58.2837H68.7344C68.7758 58.0365 68.693 57.8306 68.486 57.6658C68.3618 56.9244 68.0306 56.2242 67.6167 55.6475C67.2027 54.2471 66.6232 52.8466 65.8781 51.5697C65.8367 51.0343 65.5883 50.54 65.2571 50.1281C65.2985 49.7986 65.1743 49.5102 64.9674 49.2631C64.8432 48.5217 64.5534 47.8214 64.0981 47.2448C63.8083 46.0915 63.353 44.9793 62.732 43.9908C61.9869 41.8077 61.0762 39.6658 60.0413 37.6475C60.0413 37.5652 60.0413 37.4828 59.9585 37.4004C59.6274 36.2059 59.1306 35.0526 58.5097 33.9816L58.3441 33.6109C58.3855 33.3638 58.2613 33.1167 58.0543 32.9931C57.9715 32.5812 57.7646 32.1281 57.4334 31.7986Z" fill="#F6F6F9"/>
<path d="M162.661 27.3057C166.842 27.3057 171.602 28.7061 176.114 30.9716C176.694 31.2599 177.149 31.8366 177.605 32.3308C181.827 37.1089 184.683 42.4636 184.6 49.0127C184.559 52.2256 183.648 55.356 181.993 58.0745C180.13 61.4109 177.522 64.2942 174.334 66.4361C157.404 77.9693 140.556 89.5436 123.708 101.2C121.141 102.972 118.616 104.702 116.05 106.431C115.76 106.637 115.47 106.802 115.18 106.967C114.725 107.173 114.228 107.214 113.814 106.843C113.4 106.473 113.649 106.061 113.814 105.649C115.429 101.818 117.084 98.0288 118.699 94.1981C126.026 76.9395 133.229 59.6809 140.597 42.4636C143.371 36.0379 147.883 31.1363 154.63 28.5414C156.948 27.7588 159.349 27.4292 162.661 27.3057Z" fill="#F6F6F9"/>
<path d="M72.6145 205.717L29.1493 163.95C29.1493 164.692 29.1493 165.145 29.1493 165.598C29.1493 177.626 29.1493 189.653 29.1907 201.639C29.1907 202.793 28.8595 203.081 27.7418 203.04C23.8507 202.957 19.9595 202.957 16.1097 203.04C14.7437 203.081 14.3297 202.793 14.3297 201.351C14.3711 184.957 14.3711 168.523 14.3711 152.129C14.3711 145.25 14.3711 138.33 14.3711 131.081L57.6708 171.9C58.0847 171.447 57.8777 170.994 57.9191 170.582C57.9191 158.802 57.9605 147.021 57.9191 135.241C57.9191 134.088 58.2089 133.799 59.368 133.799C63.5075 133.882 67.6057 133.841 71.7452 133.799C72.6973 133.799 72.9457 134.046 72.9457 134.994C72.9043 158.266 72.9043 181.539 72.9043 204.811C72.8629 205.099 72.9871 205.388 72.6145 205.717Z" fill="#F6F6F9"/>
<path d="M123.087 0.896111C132.401 0.731351 139.148 4.85034 143.081 13.1707C145.606 18.4842 145.316 24.086 143.081 29.4819C133.891 51.6833 124.66 73.8434 115.387 96.0036C115.015 96.8686 114.725 97.6924 114.311 98.5574C114.145 98.9281 113.897 99.4224 113.4 99.3812C112.821 99.34 112.655 98.8045 112.572 98.3103C112.2 96.0448 111.869 93.7382 111.496 91.4315C109.592 78.4155 107.605 65.3995 105.783 52.3423C104.997 46.6581 103.755 41.0563 103.631 35.2897C103.59 33.395 103.962 31.5414 104.749 29.8114C105.535 28.1638 106.653 26.9693 108.433 26.3103C109.219 26.022 109.923 25.6513 110.585 25.157C111.537 24.4567 111.413 23.8801 110.296 23.427C109.84 23.2622 109.344 23.1799 108.888 23.1799C106.901 23.1387 104.914 23.0975 102.927 23.0563C102.43 23.0563 101.892 23.0975 102.017 22.3149C102.72 16.2599 104.169 10.5346 108.723 6.04485C112.738 2.21419 117.664 0.937301 123.087 0.896111Z" fill="#F6F6F9"/>
<path d="M64.9267 92.8045C64.8853 92.7221 64.8025 92.6809 64.7197 92.7221C61.7807 90.5803 58.8416 88.4384 55.6541 86.626L55.323 86.3377C53.9983 85.2256 52.5081 84.237 50.9764 83.4544C50.3141 82.6718 49.362 82.2599 48.5341 81.6832C45.3467 79.5825 42.3248 77.2759 39.0131 75.3812C37.3987 74.0631 35.6601 72.8686 33.7973 71.88C33.5489 71.4269 33.135 71.0974 32.6382 70.9739C30.3201 69.2027 27.8778 67.5551 25.3526 66.0723C24.3178 65.0013 23.2415 63.9716 22.248 62.8594C17.9842 58.0814 15.6247 52.6443 16.287 46.0951C16.5768 43.3354 17.6531 40.8228 18.688 38.3102C19.2261 37.7336 19.6401 37.0334 19.8884 36.2919L21.8754 33.6558L22.1652 33.3675C26.4703 30.1958 30.9824 27.4773 36.4052 26.6535L36.9848 26.6123C38.7234 26.6947 40.462 26.6123 42.2006 27.0654C49.6932 29.1249 54.6606 34.1913 57.9309 40.9052C61.3253 47.9075 64.1816 55.1157 67.3276 62.2416C73.5784 76.4109 79.6221 90.6626 86.0384 104.75C86.4524 105.615 86.8663 106.48 86.7007 107.509C86.6179 107.509 86.5351 107.551 86.4524 107.592H86.1626C86.0798 107.551 85.997 107.509 85.9142 107.509C83.2235 104.708 79.8705 102.814 76.6002 100.837C72.8746 97.9121 68.9007 95.3583 64.9267 92.8045Z" fill="#F6F6F9"/>
<path d="M185.76 149.08C182.448 147.227 179.22 145.909 175.701 145.332C163.82 143.437 151.112 152.87 149.58 164.774C148.297 174.948 152.933 184.669 161.378 189.364C167.008 192.453 172.927 192.536 179.013 191.053C181.041 190.6 183.028 189.9 184.891 188.994C185.47 188.705 185.76 188.705 185.76 189.488C185.719 193.73 185.719 197.973 185.76 202.216C185.76 202.998 185.305 203.163 184.767 203.41C182.241 204.522 179.551 205.264 176.819 205.511C169.74 206.293 162.744 206.252 156.162 203.163C145.151 197.932 138.362 189.158 135.133 177.625C131.118 163.209 136.706 148.421 149.208 139.401C156.079 134.458 163.613 131.575 172.224 131.822C176.529 131.945 180.793 132.893 184.725 134.623C185.305 134.87 185.801 135.076 185.801 135.941C185.76 140.266 185.76 144.55 185.76 149.08Z" fill="#F6F6F9"/>
<path d="M74.5873 72.1111L74.7509 72.4369L74.5873 72.1111Z" fill="#F6F6F9"/>
<path d="M90.8214 4.66867L90.535 4.42432L90.8214 4.66867Z" fill="#F6F6F9"/>
<path d="M63.2267 4.42432L62.9403 4.66867L63.2267 4.42432Z" fill="#F6F6F9"/>
<path d="M90.5321 4.40812L90.2048 4.12305L90.5321 4.40812Z" fill="#F6F6F9"/>
<path d="M89.967 4.0337L89.6807 3.83008L89.967 4.0337Z" fill="#F6F6F9"/>
<path d="M86.2035 107.539H86.4899C86.3671 107.661 86.2853 107.661 86.2035 107.539Z" fill="#F6F6F9"/>
<path d="M55.3379 86.3376L55.6652 86.6227L55.3379 86.3376Z" fill="#F6F6F9"/>
<path d="M71.7478 65.4084L71.9095 65.7706L71.7478 65.4084Z" fill="#F6F6F9"/>
<path d="M89.673 3.84033L89.3092 3.59888L89.673 3.84033Z" fill="#F6F6F9"/>
<path d="M96.3526 11.6591L96.1481 11.3333L96.3526 11.6591Z" fill="#F6F6F9"/>
<path d="M95.1689 9.37585L94.9264 9.01367L95.1689 9.37585Z" fill="#F6F6F9"/>
<path d="M60.9072 6.43848L60.6208 6.76428L60.9072 6.43848Z" fill="#F6F6F9"/>
<path d="M61.1971 6.13916L60.9108 6.42423L61.1971 6.13916Z" fill="#F6F6F9"/>
<path d="M61.4765 5.85229L61.1492 6.13737L61.4765 5.85229Z" fill="#F6F6F9"/>
<path d="M91.1516 4.90377L90.8652 4.65942L91.1516 4.90377Z" fill="#F6F6F9"/>
<path d="M74.2902 71.5083L74.4519 71.8705L74.2902 71.5083Z" fill="#F6F6F9"/>
<path d="M3.20608 81.1491C4.57213 79.4183 5.89678 77.5639 7.71818 76.2865C15.0038 71.2179 22.6619 69.8168 30.8996 74.1849C34.9564 76.3277 38.7233 78.965 42.5317 81.5611C47.4578 84.9402 52.3838 88.3193 57.3513 91.6984C57.641 91.8632 57.9308 92.028 58.2206 92.1517C60.6215 94.2533 63.395 95.8604 66.0029 97.7148C72.9573 102.536 79.9532 107.316 86.9076 112.096C87.7769 112.715 88.6462 113.292 89.5155 113.91C89.7225 114.074 90.0123 114.28 89.8467 114.61C89.7225 114.857 89.4327 114.816 89.1843 114.816C88.4392 114.816 87.7355 114.775 86.9904 114.775C65.3406 114.775 43.6494 114.693 21.9996 114.816C12.3959 114.857 2.54375 108.347 0.515377 97.8384C-0.560904 92.0692 -0.0641592 86.6298 3.08189 81.5611C3.16468 81.4375 3.20608 81.3139 3.20608 81.1491Z" fill="#F6F6F9"/>
</svg>
