<svg viewBox="0 0 400 89" fill="none" xmlns="http://www.w3.org/2000/svg">
<path d="M114.623 57.583L123.608 56.7843C123.608 57.2502 123.641 57.7161 123.707 58.1819C123.774 58.5812 123.84 59.0471 123.907 59.5795C124.04 60.1119 124.173 60.6776 124.306 61.2766C124.439 61.809 124.606 62.3414 124.805 62.8738C124.805 62.9404 124.805 63.0069 124.805 63.0735C124.872 63.1401 124.939 63.1733 125.005 63.1733C125.005 63.2399 125.005 63.3064 125.005 63.373C125.072 63.4395 125.105 63.5061 125.105 63.5726C125.105 63.6392 125.105 63.7057 125.105 63.7723C125.172 63.8388 125.238 63.8721 125.305 63.8721C125.305 63.9387 125.305 64.0052 125.305 64.0718C125.371 64.1383 125.438 64.2049 125.504 64.2714C126.037 65.3363 126.669 66.3013 127.401 67.1664C128.2 68.0316 129.065 68.7637 129.997 69.3627C130.928 70.0282 131.893 70.5939 132.892 71.0597C133.89 71.459 134.921 71.8251 135.986 72.1578C136.386 72.2909 136.785 72.424 137.184 72.5571C137.583 72.6903 137.983 72.7901 138.382 72.8566C138.715 72.9232 139.081 72.9897 139.48 73.0563C139.879 73.1228 140.279 73.1894 140.678 73.2559C141.41 73.3225 142.109 73.389 142.775 73.4556C143.44 73.4556 144.072 73.4556 144.671 73.4556C147.134 73.4556 149.396 73.2227 151.46 72.7568C153.589 72.2244 155.519 71.4258 157.25 70.3609C158.98 69.3627 160.278 68.0982 161.143 66.5675C162.008 65.0368 162.441 63.2732 162.441 61.2766C162.441 59.6128 162.141 58.1819 161.542 56.984C161.01 55.7195 160.178 54.688 159.046 53.8893C157.915 53.0907 156.484 52.3586 154.754 51.6931C153.09 50.9611 151.093 50.2623 148.764 49.5967C148.165 49.4636 147.533 49.3305 146.867 49.1974C146.268 48.9978 145.636 48.7981 144.971 48.5985C144.305 48.4654 143.606 48.3323 142.874 48.1992C142.209 47.9995 141.51 47.7998 140.778 47.6002C140.179 47.4671 139.547 47.334 138.881 47.2009C138.282 47.0678 137.65 46.9014 136.984 46.7017C136.319 46.5686 135.653 46.4022 134.988 46.2026C134.389 46.0029 133.757 45.77 133.091 45.5038C131.095 44.9048 129.198 44.1062 127.401 43.1079C125.604 42.1097 123.907 40.9783 122.31 39.7138C120.646 38.3827 119.415 36.7522 118.616 34.8222C117.818 32.8257 117.418 30.4963 117.418 27.8343C117.418 25.1056 117.951 22.5767 119.015 20.2474C120.147 17.8515 121.811 15.7218 124.007 13.8584C126.203 11.9284 128.832 10.4975 131.893 9.56578C134.955 8.5675 138.482 8.06836 142.475 8.06836C146.335 8.06836 149.829 8.53422 152.957 9.46595C156.151 10.3977 158.98 11.762 161.442 13.5589C163.971 15.3558 165.868 17.5853 167.132 20.2474C168.464 22.9094 169.196 26.0041 169.329 29.5313L160.244 30.0305C160.178 29.7643 160.111 29.4648 160.045 29.132C160.045 28.7327 159.978 28.3334 159.845 27.9341C159.779 27.5348 159.679 27.1355 159.546 26.7362C159.479 26.2703 159.379 25.8044 159.246 25.3386C158.78 24.2072 158.148 23.1424 157.349 22.1441C156.551 21.1458 155.552 20.2141 154.355 19.3489C153.157 18.4172 151.593 17.7184 149.663 17.2525C147.799 16.7867 145.536 16.5537 142.874 16.5537C142.675 16.5537 142.442 16.5537 142.176 16.5537C141.976 16.5537 141.743 16.5537 141.477 16.5537C141.211 16.6203 140.944 16.6536 140.678 16.6536C140.478 16.6536 140.246 16.6536 139.979 16.6536C139.713 16.6536 139.447 16.6868 139.181 16.7534C138.914 16.7534 138.682 16.7867 138.482 16.8532C138.216 16.9198 137.949 16.9863 137.683 17.0529C137.417 17.0529 137.151 17.0861 136.885 17.1527C135.62 17.4189 134.389 17.8182 133.191 18.3506C131.993 18.8165 130.828 19.4155 129.697 20.1475C128.632 20.9461 127.8 21.9444 127.201 23.1424C126.669 24.2737 126.403 25.6381 126.403 27.2353C126.403 28.5663 126.602 29.7643 127.002 30.8291C127.468 31.8274 128.133 32.6926 128.998 33.4246C129.93 34.1567 131.194 34.8888 132.792 35.6208C134.389 36.2864 136.352 36.9186 138.682 37.5176C138.881 37.5841 139.048 37.6507 139.181 37.7172C139.38 37.7172 139.58 37.7172 139.78 37.7172C139.979 37.7838 140.179 37.8503 140.379 37.9169C140.578 37.9169 140.778 37.9502 140.978 38.0167C141.377 38.0833 141.776 38.1831 142.176 38.3162C142.575 38.3827 143.007 38.4826 143.473 38.6157C143.673 38.6822 143.839 38.7488 143.972 38.8153C144.172 38.8153 144.372 38.8153 144.571 38.8153C144.705 38.8819 144.871 38.9484 145.071 39.015C145.27 39.015 145.47 39.0483 145.67 39.1148C145.869 39.1814 146.036 39.2479 146.169 39.3145C146.368 39.3145 146.568 39.3145 146.768 39.3145C146.967 39.381 147.167 39.4476 147.367 39.5141C147.566 39.5141 147.766 39.5474 147.966 39.614C150.894 40.2795 153.689 41.1447 156.351 42.2095C159.08 43.2743 161.675 44.5055 164.138 45.9031C166.6 47.3007 168.43 49.2307 169.628 51.6931C170.893 54.089 171.525 57.0506 171.525 60.5778C171.525 63.5726 170.926 66.3345 169.728 68.8635C168.53 71.3259 166.733 73.5887 164.337 75.6518C161.941 77.7149 159.146 79.2456 155.952 80.2439C152.757 81.2422 149.13 81.7413 145.071 81.7413C140.811 81.7413 137.051 81.4085 133.79 80.743C130.529 80.0775 127.834 79.0127 125.704 77.5485C123.508 76.0844 121.644 74.4539 120.114 72.657C118.583 70.7935 117.352 68.7637 116.42 66.5675C116.021 65.6357 115.688 64.7373 115.422 63.8721C115.222 63.0069 115.056 62.2083 114.923 61.4763C114.856 60.7442 114.789 60.0787 114.723 59.4797C114.656 58.8142 114.623 58.2485 114.623 57.7826V57.583Z" fill="#1d1d1f"/>
<path d="M219.042 63.8721L228.027 64.9702C227.361 67.4992 226.396 69.7952 225.132 71.8584C223.934 73.8549 222.403 75.6185 220.54 77.1492C218.676 78.7465 216.48 79.9111 213.951 80.6432C211.422 81.3753 208.56 81.7413 205.366 81.7413C201.306 81.7413 197.746 81.1756 194.684 80.0442C191.623 78.8463 189.027 77.0161 186.898 74.5537C184.835 72.1578 183.271 69.3627 182.206 66.1682C181.141 62.9071 180.608 59.28 180.608 55.2869C180.608 51.3604 181.108 47.7666 182.106 44.5055C183.171 41.1779 184.735 38.2164 186.798 35.6208C188.861 33.0253 191.39 31.0953 194.385 29.8308C197.38 28.4998 200.807 27.8343 204.667 27.8343C205.133 27.8343 205.599 27.8675 206.065 27.9341C206.597 27.9341 207.096 27.9674 207.562 28.0339C208.094 28.1005 208.594 28.167 209.059 28.2336C209.592 28.2336 210.091 28.3001 210.557 28.4332C212.753 28.8991 214.883 29.7976 216.946 31.1286C219.009 32.3931 220.972 34.0236 222.836 36.0202C224.699 38.0833 226.063 40.7453 226.929 44.0064C227.86 47.2674 228.326 51.1607 228.326 55.6862C228.326 55.7528 228.326 55.8193 228.326 55.8859C228.326 55.9524 228.326 56.019 228.326 56.0856C228.326 56.1521 228.326 56.2187 228.326 56.2852C228.326 56.2852 228.326 56.3185 228.326 56.385C228.326 56.4516 228.326 56.5181 228.326 56.5847C228.326 56.6512 228.326 56.7178 228.326 56.7843C228.326 56.8509 228.326 56.9175 228.326 56.984C228.326 56.984 228.326 57.0173 228.326 57.0838L189.593 56.8842C189.726 60.0787 190.225 62.8073 191.09 65.0701C191.956 67.3328 193.187 69.163 194.784 70.5606C196.381 71.9582 198.045 73.023 199.775 73.7551C201.572 74.4206 203.436 74.7534 205.366 74.7534C206.896 74.7534 208.261 74.6203 209.459 74.354C210.723 74.0213 211.788 73.5554 212.653 72.9565C213.585 72.3575 214.384 71.7252 215.049 71.0597C215.781 70.3277 216.38 69.5956 216.846 68.8635C217.112 68.3977 217.345 67.9651 217.545 67.5658C217.744 67.0999 217.944 66.6673 218.144 66.268C218.343 65.8687 218.51 65.4694 218.643 65.0701C218.843 64.6707 218.976 64.338 219.042 64.0718V63.8721ZM190.092 49.6966H219.342C219.275 48.6317 219.142 47.6002 218.942 46.6019C218.743 45.6036 218.477 44.6719 218.144 43.8067C217.811 42.875 217.378 42.0431 216.846 41.311C216.38 40.579 215.848 39.8802 215.249 39.2146C214.65 38.6157 213.984 38.0833 213.252 37.6174C212.52 37.085 211.688 36.6191 210.756 36.2198C209.825 35.8205 208.86 35.521 207.861 35.3214C206.863 35.1217 205.832 35.0219 204.767 35.0219C202.704 35.0219 200.84 35.3546 199.176 36.0202C197.513 36.6191 196.115 37.5508 194.984 38.8153C193.786 40.0798 192.821 41.3776 192.089 42.7086C191.357 44.0397 190.824 45.4705 190.491 47.0012C190.425 47.2674 190.358 47.5336 190.292 47.7998C190.225 48.066 190.192 48.299 190.192 48.4986C190.125 48.7648 190.092 49.0311 190.092 49.2973C190.092 49.4969 190.092 49.6966 190.092 49.8962V49.6966Z" fill="#1d1d1f"/>
<path d="M238.874 80.5434V9.06664H247.659V80.5434H238.874Z" fill="#1d1d1f"/>
<path d="M261.004 80.5434V9.06664H269.789V80.5434H261.004Z" fill="#1d1d1f"/>
<path d="M297.409 80.5434L277.743 28.8326H287.027L298.108 59.7792C298.574 61.1102 298.973 62.3082 299.306 63.373C299.639 64.4378 299.938 65.3695 300.205 66.1682C300.404 67.0333 300.604 67.832 300.804 68.564C301.003 69.2296 301.17 69.8618 301.303 70.4608L301.502 70.2611C301.635 69.9283 301.735 69.5623 301.802 69.163C301.935 68.7637 302.035 68.3644 302.101 67.9651C302.234 67.5658 302.368 67.1664 302.501 66.7671C302.634 66.3678 302.767 65.9685 302.9 65.5692C303.033 65.1033 303.166 64.6707 303.299 64.2714C303.499 63.8056 303.665 63.3397 303.798 62.8738C303.931 62.4745 304.065 62.0752 304.198 61.6759C304.397 61.2766 304.564 60.9106 304.697 60.5778L316.177 28.8326H325.162L305.595 80.5434H297.409Z" fill="#1d1d1f"/>
<path d="M333.048 80.5434V28.8326H341.833V80.5434H333.048ZM333.048 19.0494V9.06664H341.833V19.0494H333.048Z" fill="#1d1d1f"/>
<path d="M362.365 44.7052L353.78 43.6071C353.913 43.2743 354.013 42.875 354.08 42.4091C354.213 41.8767 354.379 41.2778 354.579 40.6122C354.712 40.0133 354.912 39.381 355.178 38.7155C355.511 38.05 355.91 37.3845 356.376 36.719C357.041 35.5876 357.906 34.5227 358.971 33.5245C360.103 32.5262 361.467 31.5612 363.064 30.6295C364.595 29.6977 366.525 28.9989 368.854 28.5331C371.25 28.0672 374.012 27.8343 377.14 27.8343C381.532 27.8343 385.093 28.2669 387.821 29.132C390.617 29.9307 392.547 31.1619 393.611 32.8257C394.743 34.4895 395.608 36.2531 396.207 38.1165C396.806 39.98 397.139 41.91 397.205 43.9066C397.205 44.0397 397.205 44.1728 397.205 44.3059C397.205 44.439 397.205 44.5721 397.205 44.7052C397.205 44.9048 397.205 45.0712 397.205 45.2043C397.205 45.3374 397.205 45.4705 397.205 45.6036C397.205 45.8698 397.205 46.1693 397.205 46.5021C397.205 46.7683 397.205 47.0345 397.205 47.3007V58.8807C397.205 61.809 397.205 64.338 397.205 66.4676C397.272 68.5973 397.338 70.3277 397.405 71.6587C397.471 72.9897 397.638 74.2542 397.904 75.4522C398.17 76.6501 398.536 77.7482 399.002 78.7465C399.069 78.9461 399.135 79.1458 399.202 79.3454C399.268 79.4785 399.335 79.6116 399.401 79.7447C399.535 79.9444 399.634 80.1108 399.701 80.2439C399.834 80.377 399.934 80.4768 400 80.5434H390.816C390.484 80.011 390.217 79.4453 390.018 78.8463C389.818 78.2473 389.652 77.6484 389.519 77.0494C389.452 76.517 389.352 76.0178 389.219 75.552C389.152 75.0861 389.086 74.6868 389.019 74.354C387.156 75.9513 385.359 77.2491 383.629 78.2473C381.965 79.2456 380.368 79.9777 378.837 80.4435C377.24 80.8429 375.709 81.1423 374.245 81.342C372.781 81.6082 371.35 81.7413 369.952 81.7413C367.091 81.7413 364.562 81.4085 362.365 80.743C360.236 80.0775 358.406 79.046 356.875 77.6484C355.344 76.2508 354.179 74.6868 353.381 72.9565C352.649 71.1596 352.283 69.1963 352.283 67.0666C352.283 64.937 352.549 63.0735 353.081 61.4763C353.68 59.879 354.579 58.548 355.777 57.4831C356.975 56.3518 358.206 55.3868 359.47 54.5881C360.801 53.7895 362.166 53.1573 363.563 52.6914C364.428 52.4252 365.26 52.1923 366.059 51.9926C366.924 51.793 367.756 51.6266 368.555 51.4935C369.353 51.3604 370.085 51.2605 370.751 51.194C371.483 51.0609 372.115 50.9611 372.648 50.8945C372.847 50.8945 373.213 50.8612 373.746 50.7947C374.345 50.6616 375.11 50.5617 376.042 50.4952C376.973 50.3621 377.938 50.229 378.937 50.0959C379.935 49.8962 380.967 49.6966 382.031 49.4969C382.564 49.3638 383.096 49.264 383.629 49.1974C384.228 49.0643 384.827 48.9312 385.426 48.7981C385.958 48.665 386.457 48.5319 386.923 48.3988C387.455 48.2657 387.955 48.0993 388.42 47.8997C388.42 47.7666 388.42 47.6335 388.42 47.5004C388.42 47.3007 388.42 47.101 388.42 46.9014C388.42 46.7683 388.42 46.6685 388.42 46.6019C388.42 46.5354 388.42 46.4355 388.42 46.3024C388.42 46.2359 388.42 46.1693 388.42 46.1028C388.42 45.9697 388.42 45.8698 388.42 45.8033C388.42 45.7367 388.42 45.7035 388.42 45.7035C388.42 45.6369 388.42 45.5704 388.42 45.5038C388.42 45.4372 388.42 45.3707 388.42 45.3041C388.42 45.2376 388.42 45.2043 388.42 45.2043C388.42 45.1378 388.42 45.0712 388.42 45.0047C388.42 44.9381 388.42 44.8716 388.42 44.805C388.354 43.6071 388.088 42.4424 387.622 41.311C387.222 40.1796 386.657 39.1148 385.925 38.1165C385.193 37.1183 383.961 36.3529 382.231 35.8205C380.567 35.2881 378.438 35.0219 375.842 35.0219C373.579 35.0219 371.683 35.2215 370.152 35.6208C368.621 36.0202 367.423 36.5858 366.558 37.3179C365.693 38.1165 364.961 38.9484 364.362 39.8136C363.829 40.6122 363.397 41.4774 363.064 42.4091C362.998 42.4757 362.931 42.5755 362.864 42.7086C362.864 42.8417 362.864 42.9416 362.864 43.0081C362.798 43.1412 362.731 43.2743 362.665 43.4074C362.665 43.474 362.665 43.5738 362.665 43.7069C362.598 43.9066 362.532 44.1062 362.465 44.3059C362.465 44.5055 362.432 44.7052 362.365 44.9048V44.7052ZM388.42 57.7826V54.5881C387.888 54.9209 387.289 55.1871 386.624 55.3868C385.958 55.5864 385.259 55.7861 384.527 55.9857C383.729 56.1854 382.93 56.385 382.131 56.5847C381.333 56.7843 380.534 56.9507 379.735 57.0838C379.27 57.1504 378.77 57.2502 378.238 57.3833C377.772 57.4499 377.273 57.5497 376.741 57.6828C376.275 57.7493 375.776 57.8159 375.243 57.8825C374.777 57.949 374.345 58.0156 373.945 58.0821C373.679 58.1487 373.413 58.2152 373.147 58.2818C372.947 58.2818 372.714 58.2818 372.448 58.2818C372.182 58.3483 371.916 58.4149 371.649 58.4814C371.45 58.4814 371.217 58.5147 370.951 58.5812C369.753 58.7809 368.621 59.0804 367.556 59.4797C366.492 59.879 365.493 60.3449 364.562 60.8773C363.563 61.4763 362.831 62.2749 362.365 63.2732C361.899 64.2714 361.667 65.4694 361.667 66.867C361.667 67.0001 361.667 67.1664 361.667 67.3661C361.667 67.4992 361.667 67.6323 361.667 67.7654C361.667 67.8985 361.667 68.0316 361.667 68.1647C361.733 68.2978 361.8 68.4309 361.866 68.564C361.999 69.3627 362.299 70.128 362.765 70.8601C363.231 71.5921 363.863 72.3242 364.661 73.0563C365.46 73.7218 366.458 74.2209 367.656 74.5537C368.921 74.8865 370.385 75.0528 372.049 75.0528C372.448 75.0528 372.914 75.0196 373.446 74.953C374.045 74.8865 374.677 74.8199 375.343 74.7534C376.075 74.6203 376.807 74.4539 377.539 74.2542C378.271 74.0546 379.037 73.7884 379.835 73.4556C380.235 73.3225 380.634 73.1561 381.033 72.9565C381.432 72.6902 381.832 72.424 382.231 72.1578C382.431 72.0247 382.63 71.8916 382.83 71.7585C383.03 71.5589 383.229 71.3925 383.429 71.2594C383.562 71.0597 383.729 70.8933 383.928 70.7602C384.128 70.5606 384.327 70.3609 384.527 70.1613C385.392 69.2295 386.091 68.2645 386.624 67.2663C387.156 66.268 387.522 65.2697 387.722 64.2714C387.921 63.2732 388.088 62.2416 388.221 61.1768C388.354 60.1119 388.42 59.0471 388.42 57.9823V57.7826Z" fill="#1d1d1f"/>
<path fill-rule="evenodd" clip-rule="evenodd" d="M14.3587 8.20492C10.9601 8.20492 8.20492 10.9601 8.20492 14.3587V74.1826C8.20492 77.5813 10.96 80.3364 14.3587 80.3364H34.3396C36.6053 80.3364 38.442 82.1731 38.442 84.4388C38.442 86.7046 36.6053 88.5413 34.3396 88.5413H14.3587C6.42859 88.5413 0 82.1127 0 74.1826V14.3587C0 6.42861 6.42859 0 14.3587 0H72.9274C80.8575 0 87.2861 6.42859 87.2861 14.3587V74.1826C87.2861 82.1127 80.8575 88.5413 72.9274 88.5413H57.0686C53.6046 88.5413 50.232 87.2959 47.6095 84.9661C41.3797 79.4317 33.8467 72.3631 27.8527 64.7375C21.9613 57.2424 17.0063 48.5318 17.0063 39.7731C17.0063 33.0028 19.059 26.3576 23.6268 21.3589C28.253 16.2963 35.0851 13.3346 43.7838 13.3346C52.5718 13.3346 59.2102 16.5142 63.5805 21.7139C67.8557 26.8003 69.6166 33.4038 69.6166 39.7731C69.6166 46.0607 67.0584 51.8731 64.0651 56.8267C61.7326 60.6869 58.9113 64.3655 56.5027 67.506C55.8389 68.3716 55.2064 69.1963 54.6241 69.9726C53.2647 71.7852 50.6933 72.1526 48.8807 70.7931C47.0681 69.4337 46.7008 66.8623 48.0602 65.0497C48.7454 64.1361 49.4488 63.2183 50.1584 62.2922C52.5288 59.199 54.97 56.0135 57.0427 52.5833C59.7182 48.1557 61.4116 43.8781 61.4116 39.7731C61.4116 34.8048 60.0288 30.2403 57.2995 26.9931C54.6655 23.8592 50.4387 21.5395 43.7838 21.5395C37.0397 21.5395 32.5343 23.7742 29.6837 26.8937C26.7746 30.0773 25.2112 34.6 25.2112 39.7731C25.2112 45.6578 28.6777 52.51 34.3033 59.667C39.8264 66.6935 46.9061 73.3662 53.0588 78.8321C54.1469 79.7988 55.5691 80.3364 57.0686 80.3364H72.9274C76.326 80.3364 79.0811 77.5813 79.0811 74.1826V14.3587C79.0811 10.96 76.326 8.20492 72.9274 8.20492H14.3587Z" fill="#0075CF"/>
<circle cx="43.6432" cy="37.7262" r="7.60902" fill="#FFB200"/>
</svg>